<?xml version="1.0" standalone="no"?>
<!DOCTYPE svg PUBLIC "-//W3C//DTD SVG 20010904//EN"
 "http://www.w3.org/TR/2001/REC-SVG-20010904/DTD/svg10.dtd">
<svg version="1.0" xmlns="http://www.w3.org/2000/svg"
 width="200.000000pt" height="200.000000pt" viewBox="0 0 200.000000 200.000000"
 preserveAspectRatio="xMidYMid meet">
<metadata>
Created by potrace 1.14, written by Peter Selinger 2001-2017
</metadata>
<g transform="translate(0.000000,200.000000) scale(0.100000,-0.100000)"
fill="#000000" stroke="none">
<path d="M1175 1710 c-46 -15 -67 -17 -89 -10 -16 6 -51 10 -78 10 -43 0 -54
-4 -84 -34 -30 -30 -34 -40 -34 -85 0 -42 5 -56 31 -86 17 -19 37 -35 45 -35
24 0 27 -26 9 -82 -25 -75 -32 -81 -83 -75 -31 3 -53 14 -75 35 -45 43 -74 45
-107 10 -27 -29 -26 -86 3 -129 29 -45 120 -91 165 -84 28 5 33 2 42 -20 13
-35 13 -85 -1 -85 -8 0 -9 -13 -5 -40 8 -48 -9 -91 -60 -161 -43 -59 -69 -76
-89 -59 -11 9 -12 17 -4 32 8 14 8 28 1 42 -6 15 -6 28 0 40 5 9 7 34 3 55 -4
24 -2 42 4 46 16 9 13 40 -4 55 -22 19 -53 2 -65 -35 -6 -19 -13 -35 -15 -35
-1 0 -19 7 -38 15 -91 38 -172 -1 -165 -81 3 -36 5 -38 51 -50 48 -12 127 -59
127 -75 0 -5 12 -12 28 -15 15 -4 39 -16 53 -26 35 -26 71 -15 114 35 l35 41
0 -47 c0 -73 19 -141 56 -203 l35 -58 -22 -58 c-36 -96 -50 -90 -68 30 -13 84
-30 112 -72 112 -40 0 -69 -41 -69 -97 0 -51 17 -95 60 -158 83 -121 147 -92
180 81 l12 62 27 -16 c40 -23 65 -10 58 31 -3 17 -9 40 -12 50 -7 17 -5 17 26
-2 19 -12 51 -21 72 -21 29 0 37 -4 37 -18 0 -24 -19 -42 -45 -42 -39 0 -65
-28 -65 -70 0 -65 29 -80 115 -60 77 17 102 82 76 194 -14 57 -22 62 -78 44
-51 -17 -95 -10 -122 17 -14 14 -14 19 4 52 11 20 61 71 110 113 50 42 107 99
127 126 21 27 42 50 48 52 15 5 41 -64 35 -91 -4 -12 -33 -44 -66 -71 -33 -27
-64 -56 -69 -66 -5 -10 -7 -40 -3 -69 5 -42 11 -55 39 -76 33 -25 78 -33 89
-16 3 5 21 7 39 4 48 -8 76 22 76 80 -1 23 -7 53 -15 67 -8 14 -14 35 -15 48
0 12 -9 31 -20 42 -14 14 -20 33 -20 66 0 39 -5 51 -33 79 l-32 32 21 49 c30
69 44 143 44 235 0 122 -38 185 -117 196 -35 5 -39 8 -35 29 2 13 13 26 23 29
10 3 30 20 44 36 48 57 27 147 -42 175 -43 18 -76 17 -148 -6z m-201 -48 c-12
-9 -26 -26 -32 -37 -9 -17 -11 -17 -12 -3 0 15 44 58 59 58 3 0 -4 -8 -15 -18z
m356 -242 c-12 -7 -11 -10 5 -16 11 -3 30 -18 42 -33 13 -14 23 -20 23 -13 0
7 -11 24 -25 37 -13 14 -21 25 -16 25 20 0 71 -78 71 -109 0 -4 -16 -13 -35
-19 -54 -20 -85 -64 -85 -124 0 -41 5 -54 29 -79 16 -16 37 -29 45 -29 21 0
20 -13 -4 -60 -11 -22 -28 -40 -38 -41 -10 0 -12 -3 -5 -6 10 -3 10 -10 2 -25
-19 -35 -91 -108 -100 -102 -5 3 -8 1 -7 -5 2 -6 -26 -35 -61 -64 -37 -30 -75
-71 -89 -97 -21 -39 -23 -54 -18 -112 7 -74 -4 -87 -39 -48 -17 18 -17 21 4
55 11 20 21 41 21 47 0 16 -38 -21 -46 -44 -9 -29 -25 -17 -55 43 -35 67 -36
81 -4 113 35 35 35 97 0 132 -21 21 -24 32 -19 59 6 36 43 60 75 50 19 -6 27
-25 10 -25 -5 0 -11 -12 -13 -27 -7 -65 111 -97 197 -53 30 15 41 17 47 7 6
-8 8 -3 6 13 -2 15 -10 26 -22 28 -10 2 -16 0 -12 -6 5 -9 -36 -28 -94 -45
-25 -7 -48 11 -55 42 -3 16 -13 35 -21 42 -8 6 -14 17 -14 25 0 24 -42 54 -74
53 l-31 -1 32 -9 c34 -10 54 -29 29 -29 -8 0 -22 -3 -32 -7 -13 -5 -16 -3 -11
9 3 10 0 19 -9 22 -19 7 -18 36 1 36 8 0 15 8 15 19 0 28 26 47 45 31 8 -7 15
-18 15 -26 0 -7 5 -16 10 -19 6 -3 10 3 10 14 0 26 -37 64 -55 57 -8 -3 -17 7
-24 26 -13 36 -17 30 50 72 51 33 53 33 73 15 22 -21 76 -25 108 -8 27 14 49
71 42 107 -5 26 -2 31 27 41 42 14 66 14 72 -1 3 -8 6 -6 6 5 1 26 -50 22
-112 -9 -29 -15 -90 -53 -137 -84 -89 -60 -169 -104 -176 -97 -2 2 7 10 20 17
14 7 27 19 30 26 3 7 -11 2 -31 -12 -27 -18 -48 -24 -82 -22 -43 1 -44 2 -8 5
20 2 37 8 37 13 0 5 -7 7 -15 4 -23 -9 -84 16 -97 39 -6 12 -15 38 -19 57 l-7
35 -1 -41 c-1 -28 6 -50 21 -70 l22 -29 -22 19 c-12 11 -27 36 -34 57 -9 32
-8 42 6 64 21 31 51 32 71 2 20 -32 57 -47 110 -47 32 0 84 17 192 64 159 69
172 73 218 75 22 0 26 -2 15 -9z m-564 -395 c4 -8 1 -21 -5 -28 -6 -8 -10 -34
-9 -60 3 -57 -6 -67 -33 -36 l-21 24 16 -25 c20 -31 20 -44 0 -64 -18 -18 -70
-21 -80 -5 -10 17 -86 49 -116 49 -16 0 -28 4 -28 8 0 31 82 45 98 17 6 -13
11 -8 20 21 6 20 8 34 5 30 -3 -3 -15 1 -27 9 -11 8 -31 15 -44 15 -13 0 -20
4 -17 10 9 15 71 12 112 -5 49 -21 52 -20 69 20 15 37 49 48 60 20z m-188 -71
c29 -20 20 -35 -16 -25 -15 5 -37 4 -50 0 -18 -7 -22 -5 -22 10 0 33 51 41 88
15z m156 -145 c-9 -10 -29 -19 -43 -19 -25 1 -25 1 6 15 17 7 35 24 39 37 7
20 8 20 12 5 2 -10 -4 -27 -14 -38z m714 -25 c30 -21 28 -36 -4 -24 -14 6 -37
10 -52 10 -26 1 -26 1 -8 15 25 19 36 19 64 -1z m8 -51 c50 -32 65 -122 26
-154 -30 -24 -52 -14 -53 25 l-1 31 -13 -31 c-20 -46 -39 -58 -67 -43 -14 8
-18 14 -10 17 6 2 12 11 12 20 0 12 -3 13 -12 4 -32 -32 -56 3 -33 48 19 37
19 46 0 30 -27 -23 -17 19 11 45 39 36 92 39 140 8z m-630 -199 c1 -29 1 -32
-3 -9 -3 17 -10 36 -16 44 -10 11 -9 13 3 9 10 -3 15 -19 16 -44z m11 -81 c-3
-10 -5 -4 -5 12 0 17 2 24 5 18 2 -7 2 -21 0 -30z m10 -55 c-3 -8 -6 -5 -6 6
-1 11 2 17 5 13 3 -3 4 -12 1 -19z m414 -19 c-13 -10 -28 -19 -35 -19 -6 1 1
8 17 16 15 8 27 20 27 26 0 6 3 8 8 4 4 -4 -4 -16 -17 -27z m-63 -26 c-10 -2
-28 -2 -40 0 -13 2 -5 4 17 4 22 1 32 -1 23 -4z"/>
<path d="M1206 1134 c-23 -23 -19 -27 8 -9 34 22 63 6 72 -40 3 -19 11 -35 16
-35 15 0 1 60 -19 82 -20 22 -56 23 -77 2z"/>
<path d="M1217 1108 c-22 -18 -37 -61 -37 -112 0 -23 -5 -47 -11 -53 -8 -8 -1
-10 28 -6 27 3 48 0 64 -10 18 -12 26 -13 34 -4 13 15 13 38 0 35 -5 -2 -9 -9
-9 -16 2 -9 -1 -10 -12 -2 -9 9 -10 18 -3 36 14 40 11 111 -7 128 -19 19 -25
20 -47 4z m38 -19 c4 -6 -3 -17 -15 -26 -12 -8 -19 -21 -16 -29 3 -7 1 -16 -4
-19 -6 -4 -10 -17 -10 -31 0 -13 -5 -24 -11 -24 -13 0 -4 92 12 122 11 20 34
24 44 7z m5 -49 c0 -5 -4 -10 -10 -10 -5 0 -10 5 -10 10 0 6 5 10 10 10 6 0
10 -4 10 -10z"/>
<path d="M1072 993 c-9 -3 -4 -10 13 -19 32 -17 38 -17 30 -4 -3 6 0 10 7 10
9 0 9 3 -2 10 -16 11 -28 11 -48 3z"/>
<path d="M1072 809 c18 -12 65 -11 72 0 4 5 -14 9 -39 9 -28 -1 -41 -4 -33 -9z"/>
<path d="M1175 788 c-56 -31 -125 -107 -125 -136 0 -8 14 5 32 29 17 24 41 51
52 60 70 56 84 71 41 47z"/>
<path d="M1384 709 c-5 -9 -2 -10 9 -6 12 4 14 2 10 -11 -6 -14 -4 -15 9 -5 8
7 18 9 23 5 4 -4 6 0 3 8 -6 19 -44 25 -54 9z"/>
</g>
</svg>
